  <svg width="24" height="25" viewBox="0 0 24 25" fill="none">
    <path
      d="M1.47905 8.722L12.0001 2.983L22.5211 8.722C22.6731 8.805 22.8371 8.844 22.9991 8.844C23.3531 8.844 23.6961 8.656 23.8781 8.323C24.1431 7.838 23.9641 7.231 23.4791 6.966L12.4791 0.966C12.1821 0.803 11.8191 0.803 11.5221 0.966L0.522053 6.966C0.0360535 7.231 -0.142947 7.838 0.122053 8.323C0.387053 8.808 0.995053 8.987 1.47905 8.722ZM20.0001 20.844C20.5531 20.844 21.0001 20.396 21.0001 19.844V10.844C21.0001 10.292 20.5531 9.844 20.0001 9.844H4.00005C3.44705 9.844 3.00005 10.292 3.00005 10.844V19.844C3.00005 20.396 3.44705 20.844 4.00005 20.844C4.55305 20.844 5.00005 20.396 5.00005 19.844V11.844H7.00005V19.844C7.00005 20.396 7.44705 20.844 8.00005 20.844C8.55305 20.844 9.00005 20.396 9.00005 19.844V11.844H11.0001V19.844C11.0001 20.396 11.4471 20.844 12.0001 20.844C12.5531 20.844 13.0001 20.396 13.0001 19.844V11.844H15.0001V19.844C15.0001 20.396 15.4471 20.844 16.0001 20.844C16.5531 20.844 17.0001 20.396 17.0001 19.844V11.844H19.0001V19.844C19.0001 20.396 19.4471 20.844 20.0001 20.844ZM23.0001 22.844H1.00005C0.447053 22.844 5.34357e-05 23.292 5.34357e-05 23.844C5.34357e-05 24.396 0.447053 24.844 1.00005 24.844H23.0001C23.5531 24.844 24.0001 24.396 24.0001 23.844C24.0001 23.292 23.5531 22.844 23.0001 22.844ZM13.0001 6.834C13.0001 6.282 12.5531 5.834 12.0001 5.834C11.4471 5.834 11.0001 6.282 11.0001 6.834V6.844C11.0001 7.396 11.4471 7.839 12.0001 7.839C12.5531 7.839 13.0001 7.386 13.0001 6.834Z"
      fill="currentColor"
    />
  </svg>