  <svg width="32" height="32" viewBox="0 0 32 32" fill="none">
    <path
      d="M26.868 22.504L23 15.734V11C23 7.14 19.86 4 16 4C12.14 4 9 7.14 9 11V15.734L5.132 22.504C4.955 22.814 4.956 23.194 5.135 23.502C5.314 23.81 5.644 24 6 24H12C12 26.206 13.794 28 16 28C18.206 28 20 26.206 20 24H26C26.356 24 26.686 23.81 26.865 23.502C27.044 23.194 27.045 22.813 26.868 22.504ZM16 26C14.897 26 14 25.103 14 24H18C18 25.103 17.103 26 16 26ZM7.723 22L10.868 16.496C10.955 16.345 11 16.174 11 16V11C11 8.243 13.243 6 16 6C18.757 6 21 8.243 21 11V16C21 16.174 21.045 16.345 21.132 16.496L24.277 22H7.723Z"
      fill="currentColor"
    />
  </svg>