  <svg width="25" height="25" viewBox="0 0 25 25" fill="none">
    <path
      d="M21.7505 1.5H10.7505C9.09649 1.5 7.75049 2.846 7.75049 4.5V6.5H3.75049C2.09649 6.5 0.750488 7.846 0.750488 9.5V22.5C0.750488 23.052 1.19849 23.5 1.75049 23.5H23.7505C24.3025 23.5 24.7505 23.052 24.7505 22.5V4.5C24.7505 2.846 23.4045 1.5 21.7505 1.5ZM15.7505 21.5H2.75049V18.5H15.7505V21.5ZM15.7505 16.5H2.75049V13.5H15.7505V16.5ZM15.7505 11.5H2.75049V9.5C2.75049 8.949 3.19949 8.5 3.75049 8.5H14.7505C15.3015 8.5 15.7505 8.949 15.7505 9.5V11.5ZM22.7505 21.5H17.7505V18.5H22.7505V21.5ZM22.7505 16.5H17.7505V13.5H22.7505V16.5ZM22.7505 11.5H17.7505V9.5C17.7505 9.148 17.6785 8.814 17.5665 8.5H22.7505V11.5ZM22.7505 6.5H9.75049V4.5C9.75049 3.949 10.1995 3.5 10.7505 3.5H21.7505C22.3015 3.5 22.7505 3.949 22.7505 4.5V6.5Z"
      fill="currentColor"
    />
  </svg>