  <svg width="24" height="25" viewBox="0 0 24 25" fill="none">
    <path
      d="M12.5 11.8456H11.5C11.224 11.8456 11 11.6216 11 11.3456C11 11.0696 11.224 10.8456 11.5 10.8456H13.5C14.052 10.8456 14.5 10.3976 14.5 9.84555C14.5 9.29355 14.052 8.84555 13.5 8.84555H13V8.34555C13 7.79355 12.552 7.34555 12 7.34555C11.448 7.34555 11 7.79355 11 8.34555V8.89655C9.86 9.12855 9 10.1386 9 11.3456C9 12.7236 10.122 13.8456 11.5 13.8456H12.5C12.776 13.8456 13 14.0696 13 14.3456C13 14.6216 12.776 14.8456 12.5 14.8456H10C9.448 14.8456 9 15.2936 9 15.8456C9 16.3976 9.448 16.8456 10 16.8456H11V17.3456C11 17.8976 11.448 18.3456 12 18.3456C12.552 18.3456 13 17.8976 13 17.3456V16.7946C14.14 16.5626 15 15.5526 15 14.3456C15 12.9676 13.878 11.8456 12.5 11.8456ZM21.777 3.04655C18.657 2.45455 15.156 3.29555 11.769 4.10955C8.486 4.89755 5.093 5.71555 2.344 5.09855C1.764 4.96855 1.167 5.10555 0.706 5.47355C0.257 5.83455 0 6.36955 0 6.94355V19.9106C0 21.2486 0.935 22.3986 2.223 22.6446C2.956 22.7846 3.71 22.8446 4.479 22.8446C6.983 22.8446 9.643 22.2056 12.235 21.5826C15.516 20.7936 18.908 19.9766 21.656 20.5926C22.235 20.7216 22.834 20.5856 23.294 20.2176C23.743 19.8576 24 19.3226 24 18.7476V5.78055C24 4.50655 23.003 3.27955 21.777 3.04655ZM22 18.6206C18.826 17.9426 15.238 18.8036 11.768 19.6376C8.586 20.4026 5.295 21.1956 2.598 20.6796C2.257 20.6156 2 20.2836 2 19.9106V7.07155C5.178 7.75055 8.765 6.88855 12.236 6.05355C15.418 5.28855 18.707 4.49655 21.403 5.01155C21.693 5.06655 22 5.46155 22 5.78055V18.6206Z"
      fill="currentColor"
    />
  </svg>