 <svg width="24" height="24" viewBox="0 0 24 24">
    <path
      d="M21.5 10.9999H6.161L12.158 5.75189C12.574 5.38789 12.616 4.75689 12.252 4.34089C11.888 3.92589 11.257 3.88289 10.841 4.24689L2.841 11.2469C2.833 11.2539 2.83 11.2649 2.822 11.2719C2.75 11.3389 2.697 11.4209 2.648 11.5069C2.629 11.5389 2.601 11.5639 2.587 11.5979C2.532 11.7219 2.5 11.8569 2.5 11.9999C2.5 12.1429 2.532 12.2779 2.587 12.4009C2.602 12.4349 2.63 12.4599 2.648 12.4919C2.698 12.5779 2.75 12.6599 2.822 12.7269C2.83 12.7339 2.833 12.7449 2.841 12.7519L10.841 19.7519C11.031 19.9179 11.266 19.9999 11.5 19.9999C11.778 19.9999 12.055 19.8839 12.253 19.6589C12.617 19.2429 12.575 18.6119 12.159 18.2479L6.161 12.9999H21.5C22.052 12.9999 22.5 12.5519 22.5 11.9999C22.5 11.4479 22.052 10.9999 21.5 10.9999V10.9999Z"
      fill="currentColor"
    />
  </svg>