  <svg width="25" height="24" viewBox="0 0 25 24" fill="none">
    <path
      d="M12.7492 4H19.7492C20.3012 4 20.7492 4.448 20.7492 5V19C20.7492 19.552 20.3012 20 19.7492 20H12.7492C12.1962 20 11.7492 20.447 11.7492 21C11.7492 21.553 12.1962 22 12.7492 22H19.7492C21.4032 22 22.7492 20.654 22.7492 19V5C22.7492 3.346 21.4032 2 19.7492 2H12.7492C12.1962 2 11.7492 2.447 11.7492 3C11.7492 3.553 12.1962 4 12.7492 4ZM2.82624 12.382C2.87724 12.505 2.95124 12.616 3.04324 12.709L7.04224 16.708C7.43324 17.099 8.06524 17.099 8.45624 16.708C8.84724 16.317 8.84724 15.685 8.45624 15.294L6.16324 13H15.7492C16.3022 13 16.7492 12.553 16.7492 12C16.7492 11.447 16.3022 11 15.7492 11H6.16324L8.45624 8.707C8.84724 8.316 8.84724 7.684 8.45624 7.293C8.26124 7.098 8.00524 7 7.74924 7C7.49324 7 7.23724 7.098 7.04224 7.293L3.04324 11.292C2.95024 11.384 2.87724 11.495 2.82624 11.618C2.72524 11.862 2.72524 12.138 2.82624 12.382Z"
      fill="currentColor"
    />
  </svg>