  <svg width="25" height="24" viewBox="0 0 25 24" fill="none">
    <path
      d="M8.75049 11.01C9.30249 11.01 9.75049 10.563 9.75049 10.01V10C9.75049 9.447 9.30249 9.005 8.75049 9.005C8.19849 9.005 7.75049 9.457 7.75049 10.01C7.75049 10.563 8.19849 11.01 8.75049 11.01ZM16.7505 11.01C17.3025 11.01 17.7505 10.563 17.7505 10.01V10C17.7505 9.447 17.3025 9.005 16.7505 9.005C16.1985 9.005 15.7505 9.457 15.7505 10.01C15.7505 10.563 16.1985 11.01 16.7505 11.01ZM18.1325 15.077C18.0105 15.026 17.8805 15 17.7505 15H7.75049C7.62049 15 7.49049 15.026 7.36849 15.077C7.12349 15.178 6.92849 15.373 6.82749 15.618C6.72649 15.862 6.72649 16.138 6.82749 16.382C6.87849 16.505 6.95149 16.616 7.04449 16.708C7.14249 16.806 9.37849 19 12.7505 19C16.1225 19 18.3585 16.806 18.4565 16.708C18.5495 16.616 18.6225 16.505 18.6735 16.382C18.7745 16.138 18.7745 15.862 18.6735 15.618C18.5725 15.373 18.3775 15.178 18.1325 15.077ZM12.7505 0C6.13349 0 0.750488 5.383 0.750488 12C0.750488 18.617 6.13349 24 12.7505 24C19.3675 24 24.7505 18.617 24.7505 12C24.7505 5.383 19.3675 0 12.7505 0ZM12.7505 22C7.23649 22 2.75049 17.514 2.75049 12C2.75049 6.486 7.23649 2 12.7505 2C18.2645 2 22.7505 6.486 22.7505 12C22.7505 17.514 18.2645 22 12.7505 22Z"
      fill="currentColor"
    />
  </svg>