  <svg width="24" height="24" viewBox="0 0 24 24" fill="none">
    <path
      d="M12 6C13.654 6 15 4.654 15 3C15 1.346 13.654 0 12 0C10.346 0 9 1.346 9 3C9 4.654 10.346 6 12 6ZM12 2C12.551 2 13 2.448 13 3C13 3.552 12.551 4 12 4C11.449 4 11 3.552 11 3C11 2.448 11.449 2 12 2ZM12 18C10.346 18 9 19.346 9 21C9 22.654 10.346 24 12 24C13.654 24 15 22.654 15 21C15 19.346 13.654 18 12 18ZM12 22C11.449 22 11 21.552 11 21C11 20.448 11.449 20 12 20C12.551 20 13 20.448 13 21C13 21.552 12.551 22 12 22ZM12 9C10.346 9 9 10.346 9 12C9 13.654 10.346 15 12 15C13.654 15 15 13.654 15 12C15 10.346 13.654 9 12 9ZM12 13C11.449 13 11 12.552 11 12C11 11.448 11.449 11 12 11C12.551 11 13 11.448 13 12C13 12.552 12.551 13 12 13Z"
      fill="currentColor"
    />
  </svg>