  <svg width="24" height="25" viewBox="0 0 24 25" fill="none">
    <path
      d="M21 5.84375H3C2.448 5.84375 2 5.39575 2 4.84375C2 4.29175 2.448 3.84375 3 3.84375H21C21.553 3.84375 22 3.39675 22 2.84375C22 2.29075 21.553 1.84375 21 1.84375H3C1.347 1.84375 0.001 3.18875 0 4.84175V4.84375V18.8438C0 21.6007 2.243 23.8438 5 23.8438H21C22.654 23.8438 24 22.4977 24 20.8438V8.84375C24 7.18975 22.654 5.84375 21 5.84375ZM22 20.8438C22 21.3958 21.552 21.8438 21 21.8438H5C3.346 21.8438 2 20.4977 2 18.8438V7.67275C2.312 7.78275 2.649 7.84375 3 7.84375H21C21.552 7.84375 22 8.29175 22 8.84375V20.8438ZM17 11.8438C15.346 11.8438 14 13.1897 14 14.8438C14 16.4978 15.346 17.8438 17 17.8438C18.654 17.8438 20 16.4978 20 14.8438C20 13.1897 18.654 11.8438 17 11.8438ZM17 15.8438C16.448 15.8438 16 15.3958 16 14.8438C16 14.2917 16.448 13.8438 17 13.8438C17.552 13.8438 18 14.2917 18 14.8438C18 15.3958 17.552 15.8438 17 15.8438Z"
      fill="currentColor"
    />
  </svg>